<?xml version="1.0" encoding="UTF-8"?>
<svg xmlns="http://www.w3.org/2000/svg" width="577" height="468" viewBox="0 0 577 468" fill="none">
  <g clip-path="url(#clip0_21_13807)">
    <path d="M452.924 247.94C451.063 264.243 445.992 279.873 439.341 294.27C432.63 308.653 424.087 321.838 414.145 333.205C411.746 336.161 408.908 338.519 406.311 341.201C403.694 343.867 401.009 346.411 398.103 348.593L389.59 355.454C386.603 357.437 383.575 359.334 380.537 361.186C374.611 365.262 368.029 367.62 361.807 370.81C355.362 373.326 348.768 375.281 342.25 377.263C348.466 374.004 354.858 371.527 360.938 368.139C366.897 364.451 373.209 361.683 378.785 357.212C390.547 349.641 401.11 339.715 410.856 328.924C420.772 318.25 428.972 305.459 436.175 291.959C443.311 278.378 449.131 263.643 452.924 247.94Z" fill="#005B7C"></path>
    <path d="M448.781 265.269C445.598 274.436 441.656 283.509 436.989 292.387C428.761 307.812 420.433 319.967 411.523 329.552C400.403 341.878 389.849 351.181 379.278 357.988C375.653 360.9 371.597 363.149 367.664 365.329C365.603 366.47 363.465 367.654 361.423 368.922C359.063 370.239 356.649 371.423 354.263 372.546C356.676 371.737 359.09 370.88 361.466 369.951C363.446 368.935 365.551 367.968 367.654 366.999C371.809 365.091 376.105 363.114 380.012 360.432C383.715 358.164 386.5 356.401 389.081 354.691L397.531 347.875C400.677 345.511 403.524 342.723 405.653 340.556C406.574 339.607 407.528 338.697 408.483 337.781C410.171 336.164 411.913 334.493 413.433 332.624C423.403 321.213 431.836 308.183 438.51 293.882C442.964 284.216 446.402 274.647 448.781 265.269ZM342.516 378.141L341.826 376.448C344.637 374.972 347.519 373.641 350.312 372.351C353.68 370.796 357.172 369.187 360.485 367.335C362.536 366.067 364.693 364.874 366.77 363.72C370.633 361.577 374.629 359.367 378.208 356.498C388.719 349.723 399.149 340.521 410.171 328.31C418.976 318.829 427.214 306.804 435.363 291.525C442.84 277.286 448.453 262.546 452.034 247.723L453.836 248.045C452.121 263.05 447.526 278.73 440.171 294.654C433.426 309.12 424.906 322.291 414.839 333.808C413.273 335.744 411.48 337.454 409.755 339.112C408.819 340.009 407.872 340.905 406.972 341.843C404.788 344.061 401.879 346.908 398.653 349.33L390.168 356.171C387.499 357.948 384.696 359.725 381.011 361.974C377.015 364.723 372.649 366.73 368.423 368.675C366.337 369.629 364.259 370.583 362.219 371.626C356.154 374.004 349.985 375.879 344.019 377.686L342.516 378.141Z" fill="#005B7C"></path>
    <path d="M29.3427 390.432C25.3303 390.432 20.3891 388.978 17.25 386.769V381.885C20.9719 384.095 24.8079 386.247 29.1126 386.247C32.6581 386.247 37.0149 384.324 37.0149 379.91C37.0149 376.245 33.6474 374.265 30.8006 372.639C25.8509 369.789 18.0646 366.593 18.0646 359.5C18.0646 352.869 23.8808 349.263 29.8651 349.263C33.0646 349.263 36.3162 350.076 38.765 351.707V356.242C35.6796 354.324 32.25 353.391 29.7492 353.391C25.8509 353.391 23.2964 356.07 23.2964 359.092C23.2964 362.637 26.6118 364.848 29.3427 366.359C34.7525 369.381 42.3105 372.233 42.3105 379.56C42.3105 386.945 36.202 390.432 29.3427 390.432Z" fill="#005B7C"></path>
    <path d="M59.4401 365.66C56.0643 365.66 52.3424 369.209 52.3424 376.418C52.3424 383.282 55.9484 386.712 59.4401 386.712C62.9235 386.712 66.5295 383.282 66.5295 376.418C66.5295 369.209 62.8076 365.66 59.4401 365.66ZM59.4401 390.432C53.8002 390.432 47.8076 385.778 47.8076 376.302C47.8076 366.885 53.3316 361.997 59.4401 361.997C65.5386 361.997 71.0643 366.885 71.0643 376.302C71.0643 385.778 65.08 390.432 59.4401 390.432Z" fill="#005B7C"></path>
    <path d="M96.8473 386.362C94.0542 389.15 91.031 390.433 87.8937 390.433C81.5551 390.433 75.4482 385.256 75.4482 376.536C75.4482 367.87 81.2024 361.996 88.0079 361.996C90.2182 361.996 92.5426 362.636 94.8151 363.977L93.4714 367.349C91.7919 366.244 90.156 365.718 88.5907 365.718C83.8191 365.718 80.1594 370.486 80.1594 376.595C80.1594 382.875 83.9417 386.535 88.1842 386.535C90.3324 386.535 92.6048 385.606 94.5749 383.631L96.8473 386.362Z" fill="#005B7C"></path>
    <path d="M110.937 389.906L108.091 390.432C105.183 390.432 102.859 388.92 102.859 384.735V362.231L107.394 361.996V381.302C107.394 385.491 107.508 386.945 109.196 386.945L110.937 386.71V389.906ZM105.183 356.008C103.317 356.008 101.806 354.496 101.806 352.635C101.806 350.775 103.317 349.263 105.183 349.263C107.048 349.263 108.437 350.775 108.437 352.635C108.437 354.496 107.048 356.008 105.183 356.008Z" fill="#005B7C"></path>
    <path d="M127.113 365.66C123.047 365.66 118.91 369.788 119.087 376.651C123.329 376.537 131.356 375.719 131.356 369.788C131.356 367.234 129.614 365.66 127.113 365.66ZM131.065 353.683L120.484 358.858H119.034V355.022L129.614 349.847H131.065V353.683ZM135.953 386.362C133.159 389.15 129.792 390.432 126.644 390.432C120.308 390.432 114.552 385.2 114.552 376.475C114.552 366.822 121.297 361.997 127.113 361.997C131.648 361.997 135.546 364.731 135.546 370.195C135.546 375.02 131.179 380.081 119.493 380.081C120.368 384.444 123.507 386.534 126.883 386.534C129.261 386.534 131.71 385.548 133.68 383.63L135.953 386.362Z" fill="#005B7C"></path>
    <path d="M155.92 389.676L150.979 390.432C147.779 390.432 143.881 389.094 143.881 382.99V366.186H139.178V362.464L143.881 361.996L144.756 353.974H148.424V362.464H155.169V366.186H148.424V381.65C148.424 385.605 150.166 386.71 152.49 386.71L155.92 386.247V389.676Z" fill="#005B7C"></path>
    <path d="M171.751 365.66C167.685 365.66 163.548 369.788 163.724 376.651C167.967 376.537 175.993 375.719 175.993 369.788C175.993 367.234 174.252 365.66 171.751 365.66ZM175.703 353.683L165.122 358.858H163.672V355.022L174.252 349.847H175.703V353.683ZM180.59 386.362C177.797 389.15 174.43 390.432 171.282 390.432C164.945 390.432 159.189 385.2 159.189 376.475C159.189 366.822 165.935 361.997 171.751 361.997C176.286 361.997 180.184 364.731 180.184 370.195C180.184 375.02 175.817 380.081 164.131 380.081C165.006 384.444 168.145 386.534 171.521 386.534C173.899 386.534 176.348 385.548 178.318 383.63L180.59 386.362Z" fill="#005B7C"></path>
    <path d="M27.9461 454.627L25.0993 455.153C22.192 455.153 19.8675 453.641 19.8675 449.456V426.951L24.4023 426.718V446.023C24.4023 450.211 24.5165 451.666 26.2044 451.666L27.9461 451.431V454.627ZM22.192 420.729C20.3361 420.729 18.8145 419.217 18.8145 417.356C18.8145 415.495 20.3361 413.984 22.192 413.984C24.0479 413.984 25.4453 415.495 25.4453 417.356C25.4453 419.217 24.0479 420.729 22.192 420.729Z" fill="#005B7C"></path>
    <path d="M58.6624 454.627L55.8072 455.153C52.8999 455.153 50.5737 453.641 50.5737 449.456V435.384C50.5737 432.768 50.6896 430.614 48.7178 430.614C47.1441 430.614 45.4562 433.696 44.1831 436.021L38.1283 446.778V454.454H33.5952V426.951L38.1283 426.718V433.231L37.784 440.44H37.8461L38.7128 438.579L42.5489 431.662C44.0605 428.927 45.7484 426.718 49.2922 426.718C53.3063 426.718 55.1085 429.219 55.1085 433.754V446.023C55.1085 450.211 55.2244 451.666 56.9123 451.666L58.6624 451.431V454.627Z" fill="#005B7C"></path>
    <path d="M67.0062 420.207C66.714 413.984 70.4896 411.075 74.9085 411.075C76.7728 411.075 79.3274 411.487 81.3076 412.123V415.788C79.5675 415.266 77.3573 414.916 75.8457 414.916C73.5111 414.916 71.3647 416.428 71.5931 420.963L71.8853 427.185H79.5675V430.907H71.8853L71.7711 458.64C71.7711 462.83 71.8853 464.28 73.5733 464.28L75.3149 464.05V467.479L72.4681 468C69.5608 468 67.2363 466.488 67.2363 462.303L67.3505 430.907H61.8887V427.185H67.3505L67.0062 420.207Z" fill="#005B7C"></path>
    <path d="M93.9484 430.381C90.5726 430.381 86.8507 433.93 86.8507 441.138C86.8507 448.003 90.4567 451.432 93.9484 451.432C97.4318 451.432 101.038 448.003 101.038 441.138C101.038 433.93 97.3159 430.381 93.9484 430.381ZM93.9484 455.152C88.3085 455.152 82.3159 450.498 82.3159 441.022C82.3159 431.605 87.8399 426.718 93.9484 426.718C100.047 426.718 105.573 431.605 105.573 441.022C105.573 450.498 99.5883 455.152 93.9484 455.152Z" fill="#005B7C"></path>
    <path d="M129.491 430.849C128.792 430.73 128.156 430.616 127.635 430.616C125.018 430.616 124.496 432.361 122.518 435.964L116.523 446.778V454.454H111.99V426.951L116.523 426.718V433.231L116.179 440.44H116.241L117.691 437.416L120.776 431.662C122.288 428.869 123.913 426.718 127.167 426.718C128.272 426.718 128.917 426.951 129.491 427.008V430.849Z" fill="#005B7C"></path>
    <path d="M174.748 454.627L171.901 455.153C168.993 455.153 166.669 453.641 166.669 449.456V435.384C166.669 432.768 166.669 430.614 164.689 430.614C163.123 430.614 161.612 433.696 160.384 436.021L154.63 446.778V454.454H150.095V435.384C150.095 432.768 150.095 430.614 148.115 430.614C146.55 430.614 145.04 433.696 143.819 436.021L138.056 446.778V454.454H133.521V426.951L138.056 426.718V433.231L137.712 440.44H137.772L138.815 438.115L142.193 431.662C143.642 428.869 145.268 426.718 148.814 426.718C152.826 426.718 154.921 429.219 154.63 433.754L154.284 440.44H154.338L155.327 438.23L158.757 431.662C160.216 428.869 161.842 426.718 165.387 426.718C169.4 426.718 171.204 429.219 171.204 433.754V446.023C171.204 450.211 171.318 451.666 173.006 451.666L174.748 451.431V454.627Z" fill="#005B7C"></path>
    <path d="M195.087 432.648C193.743 431.194 191.825 430.381 190.438 430.381C185.611 430.381 182.934 436.197 182.934 441.664C182.934 446.719 184.852 451.432 189.04 451.432C192.179 451.432 195.087 448.29 195.087 442.186V432.648ZM203.165 454.627L200.32 455.152C198.516 455.152 196.484 454.339 195.9 451.839L195.723 451.083H195.609C194.158 453.814 191.543 455.152 188.75 455.152C181.943 455.152 178.221 448.873 178.221 441.78C178.221 434.336 182.411 426.718 189.853 426.718C192.47 426.718 194.326 427.883 195.317 428.869L196.076 427.186L199.621 426.718V446.022C199.621 450.211 199.736 451.666 201.477 451.666L203.165 451.432V454.627Z" fill="#005B7C"></path>
    <path d="M222.099 454.397L217.158 455.153C213.958 455.153 210.06 453.814 210.06 447.711V430.907H205.357V427.185L210.06 426.716L210.935 418.695H214.603V427.185H221.348V430.907H214.603V446.37C214.603 450.326 216.345 451.431 218.669 451.431L222.099 450.967V454.397Z" fill="#005B7C"></path>
    <path d="M236.242 454.627L233.395 455.153C230.488 455.153 228.163 453.641 228.163 449.456V426.951L232.698 426.718V446.023C232.698 450.211 232.812 451.666 234.5 451.666L236.242 451.431V454.627ZM230.488 420.729C228.622 420.729 227.11 419.217 227.11 417.356C227.11 415.495 228.622 413.984 230.488 413.984C232.352 413.984 233.741 415.495 233.741 417.356C233.741 419.217 232.352 420.729 230.488 420.729Z" fill="#005B7C"></path>
    <path d="M256.722 432.648C255.379 431.194 253.461 430.381 252.073 430.381C247.246 430.381 244.569 436.197 244.569 441.664C244.569 446.719 246.487 451.432 250.676 451.432C253.813 451.432 256.722 448.29 256.722 442.186V432.648ZM261.257 467.537H256.722V451.489C255.555 453.584 252.886 455.152 250.27 455.152C243.464 455.152 239.856 448.873 239.856 441.78C239.856 434.336 244.047 426.718 251.489 426.718C254.106 426.718 255.962 427.883 256.953 428.869L257.712 427.186L261.257 426.718V467.537Z" fill="#005B7C"></path>
    <path d="M294.775 454.627L291.92 455.153C289.013 455.153 286.687 453.641 286.687 449.456C286.687 447.475 287.041 441.431 287.041 441.431H286.979L282.268 450.211C280.756 452.942 279.068 455.153 275.523 455.153C271.51 455.153 269.708 452.652 269.708 448.117V426.951L274.241 426.718V446.491C274.241 449.106 274.127 451.254 276.107 451.254C277.681 451.254 279.36 448.174 280.642 445.85L286.687 435.092V426.951L291.221 426.718V446.023C291.221 450.211 291.337 451.666 293.025 451.666L294.775 451.431V454.627Z" fill="#005B7C"></path>
    <path d="M310.792 430.381C306.726 430.381 302.589 434.509 302.765 441.372C307.008 441.258 315.034 440.44 315.034 434.509C315.034 431.955 313.293 430.381 310.792 430.381ZM319.631 451.083C316.838 453.871 313.471 455.152 310.323 455.152C303.986 455.152 298.23 449.921 298.23 441.195C298.23 431.543 304.976 426.718 310.792 426.718C315.327 426.718 319.225 429.452 319.225 434.916C319.225 439.741 314.858 444.801 303.172 444.801C304.047 449.165 307.186 451.254 310.562 451.254C312.94 451.254 315.389 450.268 317.359 448.35L319.631 451.083Z" fill="#005B7C"></path>
    <path d="M350.948 432.648C349.605 431.194 347.687 430.381 346.3 430.381C341.473 430.381 338.795 436.197 338.795 441.664C338.795 446.719 340.713 451.432 344.902 451.432C348.04 451.432 350.948 448.29 350.948 442.186V432.648ZM359.027 454.627L356.182 455.152C354.378 455.152 352.346 454.339 351.761 451.839L351.585 451.083H351.469C350.02 453.814 347.405 455.152 344.612 455.152C337.804 455.152 334.083 448.873 334.083 441.78C334.083 434.336 338.273 426.718 345.715 426.718C348.04 426.718 349.959 427.707 350.948 428.639V411.195L355.483 410.962V446.022C355.483 450.211 355.597 451.666 357.339 451.666L359.027 451.432V454.627Z" fill="#005B7C"></path>
    <path d="M374.523 430.381C370.457 430.381 366.32 434.509 366.496 441.372C370.739 441.258 378.765 440.44 378.765 434.509C378.765 431.955 377.024 430.381 374.523 430.381ZM383.362 451.083C380.569 453.871 377.202 455.152 374.054 455.152C367.717 455.152 361.961 449.921 361.961 441.195C361.961 431.543 368.706 426.718 374.523 426.718C379.058 426.718 382.956 429.452 382.956 434.916C382.956 439.741 378.589 444.801 366.903 444.801C367.778 449.165 370.917 451.254 374.293 451.254C376.671 451.254 379.12 450.268 381.09 448.35L383.362 451.083Z" fill="#005B7C"></path>
    <path d="M421.715 418.695H405.371V433.116H418.692V437.244H405.371V454.455H400.376V414.567H421.715V418.695Z" fill="#005B7C"></path>
    <path d="M442.788 430.849C442.089 430.73 441.453 430.616 440.932 430.616C438.315 430.616 437.793 432.361 435.814 435.964L429.82 446.778V454.454H425.287V426.951L429.82 426.718V433.231L429.476 440.44H429.538L430.987 437.416L434.073 431.662C435.584 428.869 437.21 426.718 440.463 426.718C441.569 426.718 442.214 426.951 442.788 427.008V430.849Z" fill="#005B7C"></path>
    <path d="M461.651 432.648C460.307 431.194 458.389 430.381 457.002 430.381C452.175 430.381 449.497 436.197 449.497 441.664C449.497 446.719 451.416 451.432 455.604 451.432C458.743 451.432 461.651 448.29 461.651 442.186V432.648ZM469.729 454.627L466.884 455.152C465.08 455.152 463.048 454.339 462.464 451.839L462.287 451.083H462.173C460.722 453.814 458.107 455.152 455.314 455.152C448.507 455.152 444.785 448.873 444.785 441.78C444.785 434.336 448.975 426.718 456.417 426.718C459.034 426.718 460.89 427.883 461.881 428.869L462.64 427.186L466.185 426.718V446.022C466.185 450.211 466.3 451.666 468.041 451.666L469.729 451.432V454.627Z" fill="#005B7C"></path>
    <path d="M499.765 454.627L496.91 455.153C494.003 455.153 491.676 453.641 491.676 449.456V435.384C491.676 432.768 491.792 430.614 489.821 430.614C488.247 430.614 486.559 433.696 485.286 436.021L479.231 446.778V454.454H474.696V426.951L479.231 426.718V433.231L478.887 440.44H478.949L479.816 438.579L483.652 431.662C485.163 428.927 486.851 426.718 490.395 426.718C494.409 426.718 496.211 429.219 496.211 433.754V446.023C496.211 450.211 496.327 451.666 498.015 451.666L499.765 451.431V454.627Z" fill="#005B7C"></path>
    <path d="M524.63 451.082C521.837 453.87 518.814 455.153 515.676 455.153C509.338 455.153 503.231 449.977 503.231 441.257C503.231 432.59 508.985 426.717 515.791 426.717C518.001 426.717 520.325 427.357 522.598 428.697L521.254 432.07C519.575 430.965 517.939 430.439 516.375 430.439C511.602 430.439 507.942 435.207 507.942 441.316C507.942 447.595 511.724 451.255 515.967 451.255C518.115 451.255 520.387 450.326 522.358 448.351L524.63 451.082Z" fill="#005B7C"></path>
    <path d="M540.408 430.381C536.342 430.381 532.205 434.509 532.381 441.372C536.624 441.258 544.651 440.44 544.651 434.509C544.651 431.955 542.909 430.381 540.408 430.381ZM549.247 451.083C546.454 453.871 543.087 455.152 539.939 455.152C533.602 455.152 527.847 449.921 527.847 441.195C527.847 431.543 534.592 426.718 540.408 426.718C544.943 426.718 548.841 429.452 548.841 434.916C548.841 439.741 544.474 444.801 532.788 444.801C533.663 449.165 536.802 451.254 540.178 451.254C542.556 451.254 545.005 450.268 546.975 448.35L549.247 451.083Z" fill="#005B7C"></path>
    <path d="M293.292 364.222C289.531 359.395 287.286 352.098 286.626 343.937C285.85 338.69 285.704 331.402 285.704 321.357L286.377 156.684H330.934V134.59H286.377L284.691 97.6518C283.342 70.7253 295.831 61.7498 309.331 61.7498C318.107 61.7498 330.934 63.8174 341.061 66.9245V45.1744C329.582 41.3787 314.735 38.9635 303.932 38.9635C278.278 38.9635 256.339 56.2225 258.025 93.164L260.05 134.59H228.324V156.684H260.05L259.375 343.109C259.375 367.966 275.081 376.795 289.755 376.941L305.999 373.888C301.164 371.906 296.842 368.779 293.292 364.222Z" fill="#005B7C"></path>
    <path d="M80.3695 180.87C60.7054 169.518 40.1327 158.158 40.1327 137.347C40.1327 118.888 54.7666 108.007 70.7642 108.007C84.481 108.007 100.479 113.213 117.395 122.683V92.402C103.68 83.4031 86.7635 77.7279 68.4817 77.7279C41.5066 77.7279 4.01747 94.7635 4.01747 138.287C4.01747 171.198 32.7259 189.829 56.1707 203.998C91.9164 221.238 113.588 250.761 105.793 274.3C97.0172 300.802 54.2577 309.644 10.2855 294.05C6.74001 292.792 3.33557 291.373 0 289.888C17.951 302.244 40.823 309.088 62.0793 309.088C98.1962 309.088 131.565 289.69 131.565 243.803C131.565 211.151 104.599 195.064 80.3695 180.87Z" fill="#005B7C"></path>
    <path d="M196.243 112.038C196.243 102.172 188.731 94.159 178.715 94.159C168.699 94.159 160.563 102.172 160.563 112.038C160.563 121.902 168.699 129.917 178.715 129.917C188.731 129.917 196.243 121.902 196.243 112.038Z" fill="#005B7C"></path>
    <path d="M198.672 301.058C195.675 297.503 193.734 293.374 192.494 288.394C190.852 283.809 190.612 276.129 190.612 264.023V161.67L166.194 162.906V282.207C166.194 304.404 178.715 312.417 194.364 312.417L209.396 309.698C205.405 307.585 201.787 304.755 198.672 301.058Z" fill="#005B7C"></path>
    <path d="M482.188 203.636C476.637 203.581 472.238 207.638 472.364 212.7L473.083 241.654C473.209 246.716 477.811 250.865 483.362 250.92C488.913 250.977 493.31 246.918 493.184 241.857L492.466 212.904C492.34 207.842 487.739 203.691 482.188 203.636Z" fill="#3BAA35"></path>
    <path d="M476.844 58.5353C481.613 58.1305 485.244 52.7677 484.957 46.5601L483.311 11.0495C483.022 4.84196 478.924 0.137553 474.155 0.542324C469.387 0.947094 465.756 6.30988 466.043 12.5175L467.691 48.0281C467.978 54.2357 472.076 58.9401 476.844 58.5353Z" fill="#005B7C"></path>
    <g opacity="0.720001">
      <path d="M530.614 164.125C530.717 167.639 534.825 170.495 539.791 170.507L568.192 170.573C573.157 170.584 577.101 167.744 576.998 164.231C576.896 160.717 572.786 157.86 567.821 157.848L539.42 157.783C534.454 157.773 530.512 160.611 530.614 164.125Z" fill="#005B7C"></path>
    </g>
    <g opacity="0.699997">
      <path d="M425.361 149.649C425.235 144.587 420.633 140.438 415.083 140.381L383.334 140.062C377.783 140.007 373.384 144.064 373.51 149.127C373.636 154.189 378.237 158.337 383.788 158.393L415.538 158.713C421.089 158.769 425.487 154.711 425.361 149.649Z" fill="#005B7C"></path>
    </g>
    <g opacity="0.649994">
      <path d="M507.975 195.974C503.364 198.651 502.133 204.304 505.227 208.6L522.919 233.175C526.011 237.472 532.257 238.785 536.868 236.108C541.48 233.431 542.709 227.777 539.615 223.481L521.925 198.906C518.831 194.61 512.585 193.296 507.975 195.974Z" fill="#005B7C"></path>
    </g>
    <path d="M449.479 75.4357C454.383 73.8149 456.291 68.5411 453.738 63.657L439.141 35.7229C436.59 30.8387 430.544 28.1935 425.64 29.8159C420.735 31.4367 418.827 36.7104 421.38 41.5945L435.977 69.5287C438.53 74.4128 444.575 77.0564 449.479 75.4357Z" fill="#005B7C"></path>
    <g opacity="0.610001">
      <path d="M522.213 145.699C525.248 149.04 530.896 150.499 534.829 148.959L557.327 140.157C561.26 138.616 561.988 134.661 558.953 131.322C555.918 127.982 550.269 126.522 546.336 128.06L523.84 136.865C519.907 138.403 519.178 142.358 522.213 145.699Z" fill="#005B7C"></path>
    </g>
    <path d="M434.83 179.79C431.736 175.494 425.491 174.18 420.879 176.858L394.507 192.17C389.897 194.847 388.666 200.501 391.76 204.797C394.852 209.093 401.098 210.407 405.708 207.729L432.082 192.417C436.692 189.74 437.923 184.086 434.83 179.79Z" fill="#00B1E1"></path>
    <path d="M434.83 179.79C431.736 175.494 425.491 174.18 420.879 176.858L394.507 192.17C389.897 194.847 388.666 200.501 391.76 204.797C394.852 209.093 401.098 210.407 405.708 207.729L432.082 192.417C436.692 189.74 437.923 184.086 434.83 179.79Z" stroke="#00B1E1" stroke-width="2.42862" stroke-miterlimit="10"></path>
    <path d="M524.021 183.889C521.49 187.436 523.121 192.013 527.664 194.111L553.651 206.115C558.195 208.214 563.93 207.04 566.461 203.493C568.992 199.946 567.361 195.371 562.818 193.271L536.831 181.267C532.288 179.168 526.552 180.342 524.021 183.889Z" fill="#EF7731"></path>
    <path d="M432.028 109.864C434.714 105.506 432.95 99.886 428.091 97.3096L400.3 82.5733C395.439 79.9969 389.324 81.4413 386.639 85.7997C383.953 90.1564 385.717 95.7779 390.576 98.3543L418.369 113.089C423.228 115.665 429.343 114.223 432.028 109.864Z" fill="#8D1F7F"></path>
    <g opacity="0.270004">
      <path d="M506.826 127.093C511.186 129.267 516.262 129.663 518.163 127.979L529.043 118.338C530.945 116.652 528.953 113.523 524.593 111.349C520.233 109.174 515.157 108.78 513.256 110.464L502.376 120.105C500.474 121.791 502.466 124.92 506.826 127.093Z" fill="#005B7C"></path>
    </g>
    <g opacity="0.759995">
      <path d="M453.889 196.373C449.04 193.759 442.917 195.155 440.213 199.491L424.742 224.29C422.037 228.625 423.775 234.258 428.624 236.871C433.474 239.485 439.596 238.089 442.302 233.754L457.772 208.956C460.476 204.619 458.738 198.986 453.889 196.373Z" fill="#005B7C"></path>
      <path d="M453.889 196.373C449.04 193.759 442.917 195.155 440.213 199.491L424.742 224.29C422.037 228.625 423.775 234.258 428.624 236.871C433.474 239.485 439.596 238.089 442.302 233.754L457.772 208.956C460.476 204.619 458.738 198.986 453.889 196.373Z" stroke="#005B7C" stroke-width="2.42862" stroke-miterlimit="10"></path>
    </g>
    <path d="M475.219 167.648C466.094 164.294 460.336 155.25 462.36 147.445C464.382 139.64 473.418 136.032 482.543 139.387C491.668 142.739 497.424 151.785 495.402 159.588C493.38 167.393 484.344 171.002 475.219 167.648Z" fill="#EF7731"></path>
  </g>
  <defs>
    <clipPath id="clip0_21_13807">
      <rect width="577" height="468" fill="white"></rect>
    </clipPath>
  </defs>
</svg>
